<svg width="10" height="14" viewBox="0 0 10 14" fill="none" xmlns="http://www.w3.org/2000/svg">
<path fill-rule="evenodd" clip-rule="evenodd" d="M6.25441 13.8359C6.95056 12.8064 7.01471 11.6945 6.44686 10.5002C6.28895 11.1409 6.00009 11.5298 5.58025 11.6669C5.97012 10.5535 5.64435 9.35058 4.60291 8.05818C4.58043 9.39299 4.25966 10.3653 3.64057 10.9752C2.78772 11.8146 2.79775 12.7619 3.67065 13.8171C0.0471098 11.8888 -0.464108 9.30248 2.13694 6.05834C2.29827 6.84206 2.6892 7.32323 3.30979 7.50184C2.63334 4.63127 3.34507 2.18534 5.44496 0.164062C5.45786 4.64972 6.83339 5.04842 8.57254 7.05072C10.4503 9.45358 9.3468 12.2265 6.25441 13.8359Z" fill="url(#paint0_linear_285_2414)"/>
<defs>
<linearGradient id="paint0_linear_285_2414" x1="9.19726" y1="3.91639" x2="1.19779" y2="11.9159" gradientUnits="userSpaceOnUse">
<stop stop-color="#EF3E3D"/>
<stop offset="1" stop-color="#FFC828"/>
</linearGradient>
</defs>
</svg>
